<mxfile host="app.diagrams.net" modified="2024-02-10T15:56:02.669Z" agent="Mozilla/5.0 (Windows NT 10.0; Win64; x64) AppleWebKit/537.36 (KHTML, like Gecko) Chrome/121.0.0.0 Safari/537.36" version="23.1.2" etag="UU4ZQMcxG47eFjy4ctQV" type="github">
  <diagram name="페이지-1" id="-xV0r_iroxw60iXnj_ht">
    <mxGraphModel>
      <root>
        <mxCell id="0" />
        <mxCell id="1" parent="0" />
      </root>
    </mxGraphModel>
  </diagram>
</mxfile>
